<?xml version="1.0" encoding="utf-8"?>
<!-- Generator: Adobe Illustrator 23.0.1, SVG Export Plug-In . SVG Version: 6.00 Build 0)  -->
<svg version="1.1" id="Calque_1" xmlns="http://www.w3.org/2000/svg" xmlns:xlink="http://www.w3.org/1999/xlink" x="0px" y="0px"
	 viewBox="0 0 100.86 163.66" style="enable-background:new 0 0 100.86 163.66;" xml:space="preserve">
<style type="text/css">
	.st0{fill:none;}
	.st1{fill-rule:evenodd;clip-rule:evenodd;fill:#FFFFFF;}
	.st2{fill:none;stroke:#FFFFFF;stroke-width:6;stroke-miterlimit:10;}
	.st3{fill:url(#Nouveau_motif_2);}
	.st4{fill:#FFFFFF;}
</style>
<pattern  x="-280.73" y="-344.73" width="28.35" height="28.35" patternUnits="userSpaceOnUse" id="Nouveau_motif_2" viewBox="111.58 -117.23 28.35 28.35" style="overflow:visible;">
	<g>
		<rect x="111.58" y="-117.23" class="st0" width="28.35" height="28.35"/>
		
			<rect x="181.17" y="-128.37" transform="matrix(0.5524 -0.8336 0.8336 0.5524 120.3105 131.3304)" class="st1" width="2.56" height="164"/>
		
			<rect x="152.82" y="-128.37" transform="matrix(0.5524 -0.8336 0.8336 0.5524 107.6228 107.7015)" class="st1" width="2.56" height="164"/>
		
			<rect x="124.47" y="-128.37" transform="matrix(0.5524 -0.8336 0.8336 0.5524 94.9351 84.0726)" class="st1" width="2.56" height="164"/>
		
			<rect x="96.13" y="-128.37" transform="matrix(0.5524 -0.8336 0.8336 0.5524 82.2475 60.4437)" class="st1" width="2.56" height="164"/>
		
			<rect x="67.78" y="-128.37" transform="matrix(0.5524 -0.8336 0.8336 0.5524 69.5598 36.8148)" class="st1" width="2.56" height="164"/>
		
			<rect x="181.17" y="-156.71" transform="matrix(0.5524 -0.8336 0.8336 0.5524 143.9394 118.6427)" class="st1" width="2.56" height="164"/>
		
			<rect x="152.82" y="-156.71" transform="matrix(0.5524 -0.8336 0.8336 0.5524 131.2517 95.0138)" class="st1" width="2.56" height="164"/>
		
			<rect x="124.47" y="-156.71" transform="matrix(0.5524 -0.8336 0.8336 0.5524 118.564 71.3849)" class="st1" width="2.56" height="164"/>
		
			<rect x="96.13" y="-156.71" transform="matrix(0.5524 -0.8336 0.8336 0.5524 105.8763 47.756)" class="st1" width="2.56" height="164"/>
		
			<rect x="67.78" y="-156.71" transform="matrix(0.5524 -0.8336 0.8336 0.5524 93.1887 24.1271)" class="st1" width="2.56" height="164"/>
		
			<rect x="181.17" y="-185.06" transform="matrix(0.5524 -0.8336 0.8336 0.5524 167.5683 105.955)" class="st1" width="2.56" height="164"/>
		
			<rect x="152.82" y="-185.06" transform="matrix(0.5524 -0.8336 0.8336 0.5524 154.8806 82.3261)" class="st1" width="2.56" height="164"/>
		
			<rect x="124.47" y="-185.06" transform="matrix(0.5524 -0.8336 0.8336 0.5524 142.1929 58.6972)" class="st1" width="2.56" height="164"/>
		
			<rect x="96.13" y="-185.06" transform="matrix(0.5524 -0.8336 0.8336 0.5524 129.5052 35.0683)" class="st1" width="2.56" height="164"/>
		
			<rect x="67.78" y="-185.06" transform="matrix(0.5524 -0.8336 0.8336 0.5524 116.8176 11.4394)" class="st1" width="2.56" height="164"/>
		
			<rect x="181.17" y="-213.4" transform="matrix(0.5524 -0.8336 0.8336 0.5524 191.1972 93.2673)" class="st1" width="2.56" height="164"/>
		
			<rect x="152.82" y="-213.4" transform="matrix(0.5524 -0.8336 0.8336 0.5524 178.5095 69.6384)" class="st1" width="2.56" height="164"/>
		
			<rect x="124.47" y="-213.4" transform="matrix(0.5524 -0.8336 0.8336 0.5524 165.8218 46.0095)" class="st1" width="2.56" height="164"/>
		
			<rect x="96.13" y="-213.4" transform="matrix(0.5524 -0.8336 0.8336 0.5524 153.1341 22.3807)" class="st1" width="2.56" height="164"/>
		
			<rect x="67.78" y="-213.4" transform="matrix(0.5524 -0.8336 0.8336 0.5524 140.4464 -1.2482)" class="st1" width="2.56" height="164"/>
		
			<rect x="181.17" y="-241.75" transform="matrix(0.5524 -0.8336 0.8336 0.5524 214.826 80.5796)" class="st1" width="2.56" height="164"/>
		
			<rect x="152.82" y="-241.75" transform="matrix(0.5524 -0.8336 0.8336 0.5524 202.1384 56.9507)" class="st1" width="2.56" height="164"/>
		
			<rect x="124.47" y="-241.75" transform="matrix(0.5524 -0.8336 0.8336 0.5524 189.4507 33.3219)" class="st1" width="2.56" height="164"/>
		
			<rect x="96.13" y="-241.75" transform="matrix(0.5524 -0.8336 0.8336 0.5524 176.763 9.693)" class="st1" width="2.56" height="164"/>
		
			<rect x="67.78" y="-241.75" transform="matrix(0.5524 -0.8336 0.8336 0.5524 164.0753 -13.9359)" class="st1" width="2.56" height="164"/>
	</g>
</pattern>
<rect x="18.12" y="12.73" class="st2" width="66.13" height="129.16"/>
<polygon class="st3" points="18.12,12.73 84.25,12.73 84.25,94.77 82.47,100.8 69.99,83.85 64.08,72.17 68.49,56.77 61.7,38.64 
	46.63,30.83 24.88,27.65 "/>
<path class="st4" d="M53.05,142.45c-17.57-0.09-22.27-3.81-35.38-15.66c-0.05-0.05,0.23-3.97,0.27-4.03l0.36-4.52
	c0.05-0.05,0.08-0.08,0.13-0.12h4.5h2.39c0.09,0,0.16-0.08,0.15-0.16l-3.73-42.85l-3.4-58.64c0,0,0-0.01,0-0.01l-1.44-3.72
	c-1.47-1.14,1.72-0.99,1.8-0.99l5.59-0.79l8.91,3.57c0.09,0-0.43-0.58-6.67,0.69c-11.15-0.73-1.82,12.25-1.82,12.25
	c-0.04,0.1,0.05,0.21,0.16,0.2c4.66-0.5,8.85-0.82,13.53-0.82c18.87,0,33.66,13.77,33.66,31.62c0,4.4-1.01,9.15-4.39,17.26
	c-0.02,0.05-0.01,0.11,0.02,0.15c12.88,16.28,16.16,25.71,16.54,35.38C85.14,133.87,75.18,142.56,53.05,142.45z M37.22,33.63
	c-1.58,0-9.47,0.59-10.58,0.67c-0.07,0.01-0.13,0.07-0.14,0.14l2.17,35.88c0,0.06-0.05-0.03,0,0c1.22,0.63,11.69,6.06,21.3,3.94
	c6.07-1.18,9.46-5.71,14-6.94c0.07-0.02,0.11-0.08,0.11-0.15C63.21,39.9,57.59,33.63,37.22,33.63z M57.96,82.08l-18-1.36
	c-0.01,0-0.02,0-0.03-0.01l-12.85-4.17c-0.11-0.03-0.21,0.06-0.19,0.17c2.18,15.52,3.03,27.34,3.37,35.8
	c0,17.51,3.4,22.95,14.45,22.95c23.63,0,34.51-6.97,34.51-21.93C79.21,98.39,68.84,82.93,57.96,82.08z"/>
<path class="st4" d="M20.6,103.94c0,0-0.26,14.13,1.79,14.17c3.09,0.06,4.86-0.17,4.86-0.17l-1.71,13.34
	c-0.1,0.75-1.03,1.01-1.51,0.43c-1.59-1.92-4.08-3.44-3.44,7.09"/>
<path class="st4" d="M19.05,14.5l1.63,16.32l12.93-1.04c-3.79-3.53-7.26-8.19-10.73-15.29H19.05z"/>
</svg>
